<svg width="2228" height="521" viewBox="0 0 2228 521" fill="none" xmlns="http://www.w3.org/2000/svg">
<g clip-path="url(#clip0_589_121)">
<path d="M0.000488281 520.909L2228 520.909V395.387C2228 395.387 1047.4 174.575 791.5 164C535.598 153.424 0.000488281 332.939 0.000488281 332.939L0.000488281 520.909Z" fill="#F7F7F7"/>
<path d="M1759.49 363.334C1753.3 352.514 1754.44 338.994 1762.37 329.369L1816.87 263.151C1824.16 254.299 1835.86 250.374 1847.01 253.038L1930.2 272.915C1941.75 275.675 1950.59 284.992 1952.73 296.674L1969.69 389.015C1972.38 403.656 1963.93 418.055 1949.83 422.841L1842.37 459.327C1828.77 463.942 1813.81 458.279 1806.68 445.818L1759.49 363.334Z" fill="#B2BB1E"/>
<circle cx="2059.47" cy="230" r="66" fill="black"/>
</g>
<defs>
<clipPath id="clip0_589_121">
<rect width="2228" height="521" fill="white"/>
</clipPath>
</defs>
</svg>
