<svg width="2228" height="521" viewBox="0 0 2228 521" fill="none" xmlns="http://www.w3.org/2000/svg">
<g clip-path="url(#clip0_609_9)">
<path d="M-26 540L2238 540V415.294C2235.73 414.852 2232.53 414.229 2228.45 413.436C2219.56 411.71 2206.49 409.176 2189.77 405.946C2156.31 399.488 2108.23 390.249 2049.71 379.126C1932.67 356.881 1773.9 327.104 1606.98 296.976C1272.9 236.679 906.79 175.094 776.626 169.475C646.924 163.875 445.682 208.673 276.299 255.131C191.73 278.326 115.307 301.876 60.0247 319.627C32.3852 328.502 10.0342 335.927 -5.40341 341.132C-13.1221 343.734 -19.1123 345.781 -23.1708 347.177C-24.2523 347.549 -25.1967 347.875 -26 348.152L-26 540Z" stroke="#F7F7F7" stroke-width="10"/>
<path d="M1621.73 317.294C1613.29 308.122 1611.4 294.686 1616.98 283.54L1643.06 231.474C1648.2 221.222 1658.73 214.794 1670.19 214.911L1728.49 215.506C1740.37 215.627 1751.06 222.744 1755.75 233.657L1780.73 291.76C1786.6 305.437 1781.56 321.356 1768.89 329.158L1702.97 369.72C1690.74 377.245 1674.9 375.051 1665.18 364.488L1621.73 317.294Z" fill="#B2BB1E"/>
<line x1="1605.91" y1="357.299" x2="1661.73" y2="322.954" stroke="black" stroke-width="8" stroke-linecap="round" stroke-linejoin="round"/>
<line x1="1627.62" y1="364.176" x2="1683.44" y2="329.831" stroke="black" stroke-width="8" stroke-linecap="round" stroke-linejoin="round"/>
<line x1="1649.29" y1="370.886" x2="1705.11" y2="336.541" stroke="black" stroke-width="8" stroke-linecap="round" stroke-linejoin="round"/>
</g>
<defs>
<clipPath id="clip0_609_9">
<rect width="2228" height="521" fill="white"/>
</clipPath>
</defs>
</svg>
