<svg width="1000" height="150" viewBox="0 0 1000 150" fill="none" xmlns="http://www.w3.org/2000/svg">
<path d="M493.4 62.1H430.6V13.9H411.6V136.3H430.6V78.3H493.4V136.3H512.2V13.9H493.4V62.1ZM308.1 13.5C301.2 13.3 287.2 13.3 274.8 13.3V136.2H294V89.6C298.8 89.6 308.7 89.2 316.7 89C327.9 88.8 357.1 83.2 356.9 49.5C357.2 11.5 315.1 13.5 308.1 13.5V13.5ZM307.1 73.3H294.4V29H305.2C310.2 29 339.7 26.8 340.6 49.7C341.8 72.2 318.5 73.3 307.1 73.3ZM130.9 13.3L131.1 136.2H208.2V120.2H150.3V78.5H191.3C191.3 75 191.1 69.9 191.3 63.2H150.3V29.7H208.2C208 20 208.2 13.3 208.2 13.3H130.9V13.3ZM18.8 43.3C18.8 23.2 45.4 22.4 61.1 35.3C66.5 19.8 66.9 18.7 66.9 18.7C21.1 -3.30002 0.2 25.8 0.2 44.4C0.2 88.9 63.3 79.4 54.2 110.7C51 122.1 30.7 128.6 7.3 114.4C5.6 119.2 2.8 125 0 130.8C30.9 147 71 139.2 72.3 105.8C74.1 63.8 18.8 66.8 18.8 43.3V43.3ZM829.2 47.8C826.4 11.3 791 14.1 783.2 13.7C776.7 13.5 762.9 13.3 751 13.3V136H770.2V84.4C776.7 84.4 778.8 84.4 788.6 84L823.6 136H846.9L808.2 80.8C818.6 77 830.7 68.1 829.2 47.8ZM782.1 70C777.8 70 774.5 70 770.2 69.8V28.3H780.3C785.1 28.3 810.3 26.8 812.5 46.9C815.2 70.7 787.3 70 782.1 70V70ZM955.9 13.5H933.7L893.5 136.4H912.5C918.5 114.2 920.5 107.9 920.5 107.9L970.2 107.7C976 124.1 980.3 136.6 980.3 136.6H1000L955.9 13.5V13.5ZM924.9 93.8L944.3 33.1H944.5L964.8 93.6L924.9 93.8ZM631.4 10C592.3 10 566.8 38.9 566.8 74.8C566.8 110.7 592.3 139.6 631.4 139.6C670.5 139.6 696 110.7 696 74.8C696 38.9 670.5 10 631.4 10V10ZM631.4 121.9C602.7 121.9 586.5 101 586.5 74.8C586.5 48.9 602.7 27.7 631.4 27.7C659.9 27.7 676.3 48.6 676.3 74.8C676.3 100.7 660.1 121.9 631.4 121.9Z" fill="white"/>
</svg>
