<svg width="2228" height="461" viewBox="0 0 2228 461" fill="none" xmlns="http://www.w3.org/2000/svg">
<g clip-path="url(#clip0)">
<path d="M0.0284336 392.1C0.0284336 392.1 537.614 450.093 802.114 359.092C1066.61 268.092 1173.61 184.093 1476.11 112.093C1778.61 40.0923 2228.03 7.09958 2228.03 7.09958" stroke="#FAFAFA" stroke-width="10"/>
<path d="M1485.24 228.041C1479.05 217.221 1480.19 203.7 1488.11 194.076L1525.12 149.116C1532.41 140.263 1544.1 136.338 1555.26 139.003L1611.97 152.553C1623.52 155.313 1632.35 164.63 1634.5 176.312L1645.93 238.516C1648.61 253.158 1640.16 267.557 1626.06 272.343L1552.78 297.225C1539.18 301.841 1524.22 296.178 1517.09 283.717L1485.24 228.041Z" fill="#AD0000"/>
<circle cx="1759" cy="82" r="50" fill="#F1BC00"/>
</g>
<defs>
<clipPath id="clip0">
<rect width="2228" height="461" fill="white"/>
</clipPath>
</defs>
</svg>
