<svg width="2228" height="521" viewBox="0 0 2228 521" fill="none" xmlns="http://www.w3.org/2000/svg">
<g clip-path="url(#clip0)">
<path d="M0 520.909L2228 520.909V395.388C2228 395.388 1047.4 174.576 791.5 164C535.598 153.424 0 332.94 0 332.94L0 520.909Z" fill="#FAFAFA"/>
<path d="M1759.49 363.334C1753.3 352.514 1754.44 338.994 1762.37 329.369L1816.87 263.151C1824.16 254.299 1835.86 250.374 1847.01 253.038L1930.2 272.915C1941.75 275.675 1950.59 284.992 1952.73 296.674L1969.69 389.015C1972.38 403.656 1963.93 418.055 1949.83 422.841L1842.37 459.327C1828.77 463.942 1813.81 458.279 1806.68 445.818L1759.49 363.334Z" fill="#AD0000"/>
<circle cx="2059.47" cy="230" r="66" fill="#F1BC00"/>
</g>
<defs>
<clipPath id="clip0">
<rect width="2228" height="521" fill="white"/>
</clipPath>
</defs>
</svg>
